<svg width="57" height="60" viewBox="0 0 57 60" fill="none" xmlns="http://www.w3.org/2000/svg">
<g id="&#240;&#159;&#166;&#134; icon &#34;angularjs original&#34;">
<path id="Vector" d="M28.0212 0L0 9.86136L4.42754 46.5741L28.051 59.5578L51.796 46.3986L56.2221 9.68687L28.0212 0Z" fill="#B3B3B3"/>
<path id="Vector_2" d="M53.4269 11.8087L27.9559 3.12244V56.4558L49.302 44.6419L53.4269 11.8087Z" fill="#A6120D"/>
<path id="Vector_3" d="M3.14368 11.9652L6.93898 44.7989L27.9555 56.4557V3.12146L3.14368 11.9652Z" fill="#DD1B16"/>
<path id="Vector_4" d="M34.9673 31.5144L27.956 34.7933H20.5659L17.0916 43.4819L10.6307 43.602L27.956 5.05884L34.9673 31.5144ZM34.2892 29.8636L28.0023 17.417L22.8451 29.6493H27.9555L34.2892 29.8636Z" fill="#F2F2F2"/>
<path id="Vector_5" d="M27.9555 5.05884L28.0018 17.417L33.8537 29.6588H27.9683L27.9555 34.7853L36.0932 34.7933L39.8961 43.603L46.0785 43.7174L27.9555 5.05884Z" fill="#B3B3B3"/>
</g>
</svg>
