<svg width="57" height="57" viewBox="0 0 57 57" fill="none" xmlns="http://www.w3.org/2000/svg">
<g id="&#240;&#159;&#166;&#134; icon &#34;bootstrap&#34;">
<path id="Vector" d="M0 48.9728C0 52.977 3.24563 56.2221 7.24931 56.2221H48.9728C52.9769 56.2221 56.2221 52.9765 56.2221 48.9728V7.24931C56.2221 3.24519 52.9765 0 48.9728 0H7.24931C3.24518 0 0 3.24563 0 7.24931L0 48.9728Z" fill="#563D7C"/>
<path id="Vector_2" d="M23.3141 24.8692V16.9073H30.3224C30.9899 16.9073 31.6335 16.9629 32.2533 17.0742C32.8731 17.1854 33.4214 17.3841 33.8982 17.6701C34.3749 17.9562 34.7563 18.3535 35.0424 18.862C35.3284 19.3706 35.4715 20.0221 35.4715 20.8167C35.4715 22.247 35.0424 23.28 34.1842 23.9157C33.326 24.5514 32.2295 24.8692 30.8946 24.8692H23.3141ZM15.8289 11.0908V45.1316H32.3248C33.8505 45.1316 35.3364 44.9409 36.7826 44.5595C38.2287 44.178 39.516 43.59 40.6443 42.7954C41.7727 42.0008 42.6706 40.9758 43.338 39.7203C44.0055 38.4649 44.3392 36.979 44.3392 35.2626C44.3392 33.1331 43.8227 31.3134 42.7897 29.8037C41.7568 28.2939 40.1914 27.2371 38.0937 26.6332C39.6193 25.9022 40.7715 24.9646 41.5502 23.8203C42.3289 22.6761 42.7182 21.2458 42.7182 19.5295C42.7182 17.9403 42.456 16.6054 41.9316 15.5247C41.4071 14.444 40.6682 13.5779 39.7146 12.9264C38.7611 12.2748 37.6169 11.806 36.282 11.5199C34.947 11.2338 33.4691 11.0908 31.8481 11.0908H15.8289ZM23.3141 39.3151V29.9706H31.4667C33.0877 29.9706 34.3908 30.344 35.3761 31.091C36.3614 31.8379 36.8541 33.0854 36.8541 34.8335C36.8541 35.7235 36.7031 36.4545 36.4011 37.0266C36.0992 37.5987 35.694 38.0517 35.1854 38.3854C34.6769 38.7191 34.0889 38.9575 33.4214 39.1005C32.7539 39.2436 32.0547 39.3151 31.3236 39.3151H23.3141Z" fill="white"/>
</g>
</svg>
