<svg width="57" height="64" viewBox="0 0 57 64" fill="none" xmlns="http://www.w3.org/2000/svg">
<g id="&#240;&#159;&#166;&#134; icon &#34;file type css&#34;">
<path id="Vector" d="M5.11483 57.3904L0 0H56.2221L51.1004 57.3813L28.0769 63.7646L5.11483 57.3904Z" fill="#1572B6"/>
<path id="Vector_2" d="M28.1111 58.8867L46.7166 53.7286L51.0936 4.6936H28.1111V58.8867Z" fill="#33A9DC"/>
<path id="Vector_3" d="M28.1111 25.4855H37.4252L38.0674 18.2778H28.1111V11.2386H28.1361H45.7602L45.5916 13.1265L43.8632 32.5246H28.1111V25.4855Z" fill="white"/>
<path id="Vector_4" d="M28.1543 43.765L28.1225 43.7741L20.284 41.6562L19.783 36.0426H15.973H12.7165L13.7026 47.0944L28.1202 51.0979L28.1543 51.0888V43.765Z" fill="#EBEBEB"/>
<path id="Vector_5" d="M36.8263 32.226L35.9791 41.6517L28.1292 43.7696V51.0934L42.5582 47.0945L42.6653 45.9057L43.8882 32.226H36.8263Z" fill="white"/>
<g id="Group">
<path id="Vector_6" d="M28.1361 11.2386V15.6111V18.2596V18.2778H11.1565H11.1337L10.9925 16.6951L10.6714 13.1265L10.5029 11.2386H28.1361Z" fill="#EBEBEB"/>
<path id="Vector_7" d="M28.111 25.4857V29.8581V32.5067V32.5249H20.3932H20.3705L20.2293 30.9421L19.9104 27.3736L19.7419 25.4857H28.111Z" fill="#EBEBEB"/>
</g>
</g>
</svg>
