<svg width="57" height="80" viewBox="0 0 57 80" fill="none" xmlns="http://www.w3.org/2000/svg">
<g id="&#240;&#159;&#166;&#134; icon &#34;html5 original wordmark&#34;">
<path id="Vector" d="M5.11662 72.9843L3.05176e-05 15.5961H56.2221L51.1004 72.9754L28.0767 79.3579L5.11662 72.9843Z" fill="#E44D26"/>
<path id="Vector_2" d="M28.1111 74.4792L46.7148 69.3213L51.0921 20.2889H28.1111V74.4792Z" fill="#F16529"/>
<path id="Vector_3" d="M28.1111 41.5735H18.7972L18.1546 34.3652H28.1111V27.3268H10.4622L10.6302 29.2155L12.3605 48.6113H28.1111V41.5735ZM28.1111 59.8521L28.0799 59.8604L20.2419 57.7433L19.7406 52.1305H12.6748L13.6608 63.1818L28.0787 67.1845L28.1111 67.1749V59.8521Z" fill="#EBEBEB"/>
<path id="Vector_4" d="M5.23114 0H8.8076V3.53448H12.08V0H15.6571V10.7014H12.08V7.11794H8.80824V10.7014H5.23114V0ZM20.3602 3.54911H17.2112V0H27.0875V3.54911H23.9373V10.7014H20.3602V3.54911ZM28.655 0H32.3841L34.6788 3.76031L36.9708 0H40.7019V10.7014H37.1388V5.39714L34.6788 9.20199H34.6164L32.1545 5.39714V10.7014H28.6544V0H28.655ZM42.4825 0H46.0602V7.16438H51.0903V10.702H42.4825V0Z" fill="black"/>
<path id="Vector_5" d="M28.0869 41.5735V48.6113H36.7538L35.937 57.7395L28.0869 59.8585V67.1806L42.5161 63.1818L42.6217 61.9922L44.2757 43.4629L44.4475 41.5735H42.5505H28.0869ZM28.0869 27.3268V34.3652H45.0881L45.2287 32.7831L45.5499 29.2155L45.7185 27.3268H28.0869Z" fill="white"/>
</g>
</svg>
