<svg width="25" height="34" viewBox="0 0 25 34" fill="none" xmlns="http://www.w3.org/2000/svg">
<g id="&#240;&#159;&#166;&#134; icon &#34;html5 original wordmark&#34;">
<path id="Vector" d="M2.19218 31.2692L3.05176e-05 6.68188H24.0878L21.8935 31.2654L12.0292 33.9999L2.19218 31.2692Z" fill="#E44D26"/>
<path id="Vector_2" d="M12.0439 31.9098L20.0144 29.7L21.8899 8.69263H12.0439V31.9098Z" fill="#F16529"/>
<path id="Vector_3" d="M12.0439 17.8116H8.05345L7.77817 14.7233H12.0439V11.7078H4.48245L4.55441 12.517L5.29575 20.8269H12.0439V17.8116ZM12.0439 25.6429L12.0306 25.6464L8.67242 24.7394L8.45765 22.3346H5.43039L5.85285 27.0694L12.03 28.7843L12.0439 28.7802V25.6429Z" fill="white"/>
<path id="Vector_4" d="M2.24121 0H3.77351V1.51431H5.17553V0H6.7081V4.58489H5.17553V3.0496H3.77378V4.58489H2.24121V0ZM8.72309 1.52058H7.37394V0H11.6053V1.52058H10.2557V4.58489H8.72309V1.52058ZM12.2769 0H13.8746L14.8577 1.61106L15.8397 0H17.4383V4.58489H15.9117V2.31234L14.8577 3.94249H14.831L13.7762 2.31234V4.58489H12.2766V0H12.2769ZM18.2011 0H19.734V3.0695H21.8891V4.58517H18.2011V0Z" fill="white"/>
<path id="Vector_5" d="M12.0335 17.8116V20.8269H15.7468L15.3968 24.7377L12.0335 25.6456V28.7827L18.2156 27.0694L18.2608 26.5597L18.9695 18.6211L19.043 17.8116H18.2303H12.0335ZM12.0335 11.7078V14.7233H19.3175L19.3777 14.0455L19.5154 12.517L19.5876 11.7078H12.0335Z" fill="white"/>
</g>
</svg>
