<svg width="39" height="59" viewBox="0 0 39 59" fill="none" xmlns="http://www.w3.org/2000/svg">
<g id="&#240;&#159;&#166;&#134; icon &#34;figma&#34;">
<g id="Group">
<path id="Vector" d="M29.0327 38.7103C34.3775 38.7103 38.7103 34.3775 38.7103 29.0327C38.7103 23.6879 34.3775 19.3551 29.0327 19.3551C23.6879 19.3551 19.3551 23.6879 19.3551 29.0327C19.3551 34.3775 23.6879 38.7103 29.0327 38.7103Z" fill="#19BCFE"/>
<path id="Vector_2" fill-rule="evenodd" clip-rule="evenodd" d="M9.67757 58.0654C15.0224 58.0654 19.3551 53.7326 19.3551 48.3878C19.3551 46.9288 19.3551 43.7029 19.3551 38.7102C15.0076 38.7102 11.7817 38.7102 9.67757 38.7102C4.3328 38.7102 0 43.043 0 48.3878C0 53.7326 4.3328 58.0654 9.67757 58.0654Z" fill="#09CF83"/>
<path id="Vector_3" fill-rule="evenodd" clip-rule="evenodd" d="M9.67757 38.7103H19.3551V19.3551C14.685 19.3551 11.4592 19.3551 9.67757 19.3551C4.3328 19.3551 0 23.6879 0 29.0327C0 34.3775 4.3328 38.7103 9.67757 38.7103Z" fill="#A259FF"/>
<path id="Vector_4" fill-rule="evenodd" clip-rule="evenodd" d="M9.67757 19.3552H19.3551V0C14.685 0 11.4592 0 9.67757 0C4.3328 0 0 4.3328 0 9.67758C0 15.0224 4.3328 19.3552 9.67757 19.3552Z" fill="#F24E1E"/>
<path id="Vector_5" fill-rule="evenodd" clip-rule="evenodd" d="M29.0327 19.3552H19.3551V0H29.0327C34.3775 0 38.7103 4.3328 38.7103 9.67758C38.7103 15.0224 34.3775 19.3552 29.0327 19.3552Z" fill="#FF7262"/>
</g>
</g>
</svg>
