<svg width="57" height="58" viewBox="0 0 57 58" fill="none" xmlns="http://www.w3.org/2000/svg">
<g id="JS">
<path id="Vector" d="M47.7888 0H8.43332C3.77572 0 0 3.83762 0 8.57157V48.5722C0 53.3062 3.77572 57.1438 8.43332 57.1438H47.7888C52.4464 57.1438 56.2221 53.3062 56.2221 48.5722V8.57157C56.2221 3.83762 52.4464 0 47.7888 0Z" fill="#F7DF1E"/>
<path id="Vector_2" d="M35.5781 41.2954C36.6762 43.1927 38.2135 44.532 40.7391 44.532C42.9353 44.532 44.3628 43.4159 44.3628 41.8534C44.3628 40.0677 42.9353 39.398 40.5195 38.2819L39.2018 37.7239C35.3585 36.0497 32.8329 34.0408 32.8329 29.688C32.8329 25.6701 35.7977 22.545 40.5195 22.545C43.9236 22.545 46.3393 23.7727 47.9865 26.8978L43.9236 29.5764C43.0451 27.9023 42.0568 27.2326 40.5195 27.2326C38.9822 27.2326 37.9939 28.2371 37.9939 29.5764C37.9939 31.1389 38.9822 31.8086 41.2881 32.8131L42.6059 33.3711C47.108 35.3801 49.6336 37.2774 49.6336 41.8534C49.6336 46.6526 45.9001 49.3312 40.8489 49.3312C35.9075 49.3312 32.7231 46.9874 31.1857 43.8624L35.5781 41.2954ZM16.9106 41.7418C17.7891 43.1927 18.4479 44.532 20.3147 44.532C22.0716 44.532 23.1697 43.8624 23.1697 41.1837V22.6567H28.4405V40.9605C28.4405 46.541 25.2561 48.9964 20.5343 48.9964C16.2517 48.9964 13.8359 46.7642 12.6281 44.0856L16.9106 41.7418Z" fill="black"/>
</g>
</svg>
