<svg width="57" height="34" viewBox="0 0 57 34" fill="none" xmlns="http://www.w3.org/2000/svg">
<g id="&#240;&#159;&#166;&#134; icon &#34;Tailwind CSS&#34;">
<path id="Vector" d="M28.1111 0C20.6148 0 15.9296 3.74814 14.0555 11.2444C16.8666 7.49628 20.1463 6.09073 23.8944 7.02777C26.0329 7.5624 27.5614 9.11382 29.2533 10.8312C32.0094 13.6288 35.1993 16.8666 42.1666 16.8666C49.6629 16.8666 54.348 13.1185 56.2221 5.62221C53.411 9.37036 50.1314 10.7759 46.3832 9.83887C44.2447 9.30424 42.7162 7.75282 41.0243 6.03545C38.2682 3.23787 35.0783 0 28.1111 0ZM14.0555 16.8666C6.55925 16.8666 1.87407 20.6148 0 28.1111C2.81111 24.3629 6.09073 22.9574 9.83887 23.8944C11.9774 24.429 13.5059 25.9805 15.1978 27.6978C17.9539 30.4954 21.1438 33.7333 28.1111 33.7333C35.6073 33.7333 40.2925 29.9851 42.1666 22.4889C39.3555 26.237 36.0758 27.6426 32.3277 26.7055C30.1892 26.1709 28.6607 24.6195 26.9688 22.9021C24.2127 20.1045 21.0228 16.8666 14.0555 16.8666Z" fill="url(#paint0_linear_44_154)"/>
</g>
<defs>
<linearGradient id="paint0_linear_44_154" x1="-399.802" y1="1662.38" x2="13376.2" y2="6440.54" gradientUnits="userSpaceOnUse">
<stop stop-color="#2298BD"/>
<stop offset="1" stop-color="#0ED7B5"/>
</linearGradient>
</defs>
</svg>
