<svg width="57" height="30" viewBox="0 0 57 30" fill="none" xmlns="http://www.w3.org/2000/svg">
<g id="&#240;&#159;&#166;&#134; icon &#34;mysql original wordmark&#34;">
<path id="Vector" d="M0.000453375 26.5963H1.86305V19.2406L4.74673 25.6532C5.08678 26.4294 5.55243 26.7037 6.46605 26.7037C7.37966 26.7037 7.82763 26.4294 8.16769 25.6532L11.0514 19.2406V26.5963H12.914V19.2529C12.914 18.5365 12.6274 18.1896 12.0362 18.011C10.6211 17.5694 9.67164 17.9516 9.24181 18.9069L6.41209 25.2356L3.67215 18.9065C3.26 17.9516 2.29288 17.5694 0.877797 18.0105C0.286554 18.1896 0 18.536 0 19.2524L0.000453375 26.5963ZM14.4633 20.6086H16.3254V24.6611C16.3082 24.881 16.3961 25.3979 17.4163 25.4142C17.9368 25.4224 21.4344 25.4142 21.467 25.4142V20.5886H23.3337C23.3423 20.5886 23.3319 27.1694 23.3319 27.1966C23.3419 28.8198 21.3183 29.1721 20.3852 29.1993H14.5036V27.9461C14.5136 27.9461 20.3811 27.9474 20.3956 27.9456C21.5949 27.8191 21.453 27.2233 21.4525 27.0229V26.5342H17.4938C15.6521 26.5174 14.4787 25.7135 14.4637 24.7885C14.4628 24.7038 14.5041 20.6494 14.4633 20.6086Z" fill="#00618A"/>
<path id="Vector_2" d="M24.7697 26.5963H30.1253C30.7524 26.5963 31.3617 26.4653 31.8451 26.2386C32.6508 25.8686 33.0448 25.3671 33.0448 24.7097V23.3486C33.0448 22.8113 32.5973 22.3094 31.7195 21.9757C31.2538 21.7961 30.6803 21.7013 30.1249 21.7013H27.8678C27.1156 21.7013 26.7574 21.4746 26.6681 20.9732C26.6504 20.9133 26.6504 20.8657 26.6504 20.8059V19.958C26.6504 19.9104 26.6504 19.8623 26.6681 19.8029C26.7574 19.4207 26.9546 19.3132 27.6175 19.2534L27.7966 19.2416H33.1164V18.0002H27.8864C27.1342 18.0002 26.7402 18.0478 26.382 18.1552C25.2716 18.5016 24.7873 19.0507 24.7873 20.006V21.0924C24.7873 21.9285 25.7372 22.6449 27.331 22.8122C27.5105 22.8235 27.6891 22.8362 27.8682 22.8362H29.8029C29.8746 22.8362 29.9462 22.8362 30.0002 22.8476C30.5914 22.8952 30.8417 23.0031 31.0212 23.2175C31.1287 23.325 31.1641 23.4329 31.1641 23.5517V24.6385C31.1641 24.7696 31.0747 24.9369 30.8956 25.0801C30.7347 25.2234 30.4658 25.3191 30.1076 25.3431L29.9104 25.3549H24.7697V26.5963ZM44.6656 24.4354C44.6656 25.7126 45.6151 26.429 47.5312 26.5728C47.7103 26.5845 47.8894 26.5963 48.0685 26.5963H52.9226V25.3549H48.0331C46.9404 25.3549 46.5287 25.0801 46.5287 24.4232V17.9993H44.6661L44.6656 24.4354ZM34.2336 24.4998V20.0722C34.2336 18.9478 35.0235 18.2654 36.585 18.05C36.7464 18.026 36.9264 18.0142 37.0874 18.0142H40.6235C40.8031 18.0142 40.9645 18.026 41.1436 18.05C42.7051 18.2654 43.4954 18.9473 43.4954 20.0722V24.4998C43.4954 25.4129 43.1599 25.9008 42.3868 26.2191L44.2222 27.8754H42.059L40.5745 26.5351L39.0801 26.6299H37.0874C36.7464 26.6299 36.3878 26.5823 35.9929 26.4744C34.8081 26.1515 34.2336 25.529 34.2336 24.4998ZM36.244 24.3923C36.244 24.4522 36.2617 24.5125 36.2799 24.5841C36.3873 25.0987 36.8725 25.3857 37.6079 25.3857H39.3L37.7457 23.9824H39.9089L41.2642 25.2066C41.5145 25.0729 41.6786 24.8698 41.7362 24.6081C41.7539 24.5483 41.7539 24.4884 41.7539 24.4286V20.1811C41.7539 20.1335 41.7539 20.0732 41.7362 20.0133C41.6283 19.5345 41.1436 19.2597 40.4258 19.2597H37.6074C36.7822 19.2597 36.2436 19.6188 36.2436 20.1811L36.244 24.3923Z" fill="#E48E00"/>
<path id="Vector_3" d="M54.5613 15.9386C53.4164 15.9073 52.5418 16.0138 51.7937 16.3289C51.581 16.4187 51.2424 16.421 51.2079 16.6871C51.3244 16.81 51.3426 16.9927 51.4355 17.1433C51.6141 17.4321 51.9157 17.8193 52.1845 18.022C52.4779 18.2437 52.7808 18.4813 53.0963 18.6735C53.6563 19.0154 54.282 19.2103 54.822 19.5522C55.1398 19.7544 55.4554 20.0083 55.766 20.2364C55.9197 20.3484 56.0222 20.5239 56.2221 20.5941V20.562C56.1174 20.4287 56.0902 20.2455 55.9941 20.1058L55.5706 19.6823C55.1566 19.1328 54.6316 18.6508 54.0725 18.25C53.6273 17.9304 52.6307 17.4983 52.4448 16.98L52.4121 16.9478C52.7277 16.912 53.0977 16.7978 53.3888 16.7198C53.8785 16.5883 54.316 16.6223 54.8216 16.4917L55.5053 16.2958V16.1662C55.25 15.9041 55.0673 15.5568 54.7889 15.3196C54.0603 14.6989 53.2641 14.0787 52.4448 13.5609C51.9905 13.2743 51.4287 13.088 50.9467 12.8449C50.7853 12.7629 50.5006 12.7207 50.3931 12.5842C50.1397 12.2619 50.0023 11.8533 49.8069 11.4775C49.3988 10.6908 48.9971 9.83115 48.6348 9.00277C48.3881 8.43828 48.2267 7.88149 47.9189 7.37503C46.4403 4.94431 44.8488 3.47709 42.3837 2.03525C41.8591 1.72829 41.2275 1.60768 40.5605 1.44944L39.4859 1.38416C39.2679 1.29302 39.0402 1.02551 38.8348 0.895835C38.0178 0.379856 35.9231 -0.742329 35.3182 0.733514C34.9364 1.66481 35.8895 2.57344 36.23 3.04544C36.469 3.37643 36.7755 3.74732 36.9464 4.11956C37.0589 4.3644 37.0779 4.6097 37.1745 4.86859C37.4107 5.50609 37.617 6.20025 37.923 6.78923C38.0777 7.08757 38.2486 7.40179 38.444 7.66839C38.5637 7.83162 38.7696 7.90416 38.8018 8.15671C38.6009 8.43782 38.5891 8.87491 38.4762 9.23083C37.9675 10.8354 38.1593 12.83 38.8997 14.0175C39.1268 14.3825 39.6619 15.1641 40.3973 14.864C41.0407 14.6019 40.8974 13.7899 41.0815 13.073C41.1232 12.9111 41.0974 12.7914 41.179 12.6826V12.7153L41.7652 13.8873C42.1991 14.586 42.9686 15.3156 43.621 15.8084C43.9593 16.0637 44.2259 16.5058 44.663 16.6549V16.6218H44.6308C44.5455 16.4899 44.4136 16.4355 44.3048 16.3289C44.0499 16.0791 43.7666 15.769 43.5562 15.4824C42.9627 14.6772 42.4385 13.7953 41.9606 12.8776C41.7326 12.4396 41.5344 11.9563 41.3422 11.5101C41.2678 11.3383 41.2687 11.078 41.1146 10.9896C40.9033 11.3161 40.5936 11.5804 40.4304 11.9662C40.1701 12.5829 40.1366 13.3351 40.04 14.1149L39.9747 14.1471C39.5209 14.0379 39.3617 13.5709 39.193 13.1705C38.7668 12.158 38.6875 10.5271 39.0629 9.36141C39.1599 9.05945 39.5984 8.10956 39.4207 7.83071C39.3359 7.55277 39.0561 7.39226 38.9001 7.17916C38.7065 6.91664 38.5129 6.57114 38.3792 6.26736C38.0301 5.47798 37.8673 4.59156 37.5005 3.79311C37.3245 3.41134 37.028 3.02549 36.7841 2.68634C36.5143 2.31001 36.2119 2.03344 36.0024 1.57912C35.9281 1.41771 35.8269 1.15881 35.9371 0.992863C35.972 0.880871 36.0224 0.83417 36.133 0.797444C36.3216 0.6519 36.8476 0.84596 37.0443 0.927573C37.5667 1.14476 38.0024 1.35106 38.4449 1.64396C38.6571 1.78497 38.8716 2.05701 39.1287 2.13228H39.4216C39.88 2.23747 40.3937 2.16447 40.8217 2.2946C41.5789 2.52493 42.2572 2.88267 42.8729 3.27169C44.7496 4.4569 46.2834 6.14358 47.3335 8.1558C47.5022 8.47999 47.5756 8.78876 47.7239 9.13245C48.0241 9.82525 48.4022 10.5385 48.7005 11.2163C48.9984 11.8923 49.2891 12.5747 49.7103 13.1374C49.9316 13.433 50.7867 13.5917 51.1752 13.7558C51.4477 13.871 51.8939 13.9912 52.1519 14.1462C52.6447 14.4437 53.1226 14.7978 53.5847 15.1233C53.8154 15.2875 54.5259 15.6443 54.5613 15.9386ZM40.0074 3.53376C39.7689 3.52923 39.5997 3.56006 39.4211 3.59905V3.63124H39.4538C39.5676 3.86566 39.7684 4.01619 39.9094 4.2175L40.2354 4.90124L40.2676 4.86905C40.4694 4.72713 40.5614 4.49997 40.5605 4.15266C40.4794 4.06742 40.4676 3.96087 40.3977 3.85976C40.3053 3.72374 40.1248 3.64757 40.0074 3.53376Z" fill="#00618A"/>
</g>
</svg>
