<svg width="57" height="57" viewBox="0 0 57 57" fill="none" xmlns="http://www.w3.org/2000/svg">
<g id="&#240;&#159;&#166;&#134; icon &#34;wordpress&#34;">
<path id="Vector" d="M3.99571 28.1095C3.99571 37.655 9.5428 45.9034 17.5865 49.8129L6.0835 18.2955C4.70454 21.3834 3.9931 24.7276 3.99571 28.1095ZM44.3896 26.8926C44.3896 28.957 43.5963 31.3527 42.5533 34.6881L40.1484 42.7258L31.4338 16.8033C32.8848 16.7271 34.1939 16.5734 34.1939 16.5734C35.4929 16.4197 35.3401 14.5104 34.0392 14.587C34.0392 14.587 30.1344 14.8931 27.6125 14.8931C25.243 14.8931 21.2606 14.587 21.2606 14.587C19.9611 14.5104 19.8088 16.4972 21.1082 16.5734C21.1082 16.5734 22.3384 16.7271 23.637 16.8033L27.3946 27.0968L22.1168 42.9241L13.3352 16.8037C14.7889 16.7276 16.0957 16.5738 16.0957 16.5738C17.3938 16.4201 17.2406 14.5108 15.9406 14.5875C15.9406 14.5875 12.0362 14.8935 9.5139 14.8935C9.06147 14.8935 8.52782 14.882 7.96205 14.8651C12.2739 8.31813 19.6858 3.99571 28.1104 3.99571C34.3884 3.99571 40.1044 6.39552 44.3951 10.3261C44.2905 10.3201 44.1891 10.3068 44.0822 10.3068C41.714 10.3068 40.0332 12.3703 40.0332 14.587C40.0332 16.5734 41.1786 18.2556 42.4009 20.2419C43.3191 21.8484 44.3896 23.9123 44.3896 26.8926ZM28.5334 30.2188L35.9467 50.5264C35.9936 50.6421 36.0511 50.7533 36.1183 50.8586C33.6116 51.7396 30.9186 52.2255 28.1104 52.2255C25.8043 52.2255 23.5102 51.8945 21.2982 51.2426L28.5334 30.2188ZM49.27 16.5399C51.2143 20.0857 52.2305 24.0656 52.2241 28.1095C52.2241 37.0062 47.402 44.7732 40.2329 48.9539L47.5989 27.657C48.9754 24.2175 49.4324 21.4666 49.4324 19.0195C49.4324 18.133 49.3737 17.308 49.27 16.5399ZM28.1104 0C43.6096 0 56.2216 12.6098 56.2221 28.1095C56.2221 43.6114 43.6096 56.2208 28.1104 56.2208C12.6102 56.2208 0 43.611 0 28.1095C0 12.6098 12.6107 0 28.1104 0ZM28.1104 54.9318C42.8983 54.9318 54.9304 42.8993 54.9304 28.1095C54.9304 13.321 42.8988 1.28938 28.1104 1.28938C13.321 1.28938 1.28892 13.321 1.28892 28.1095C1.28892 42.8993 13.3215 54.9318 28.1104 54.9318Z" fill="#00749A"/>
</g>
</svg>
